<svg width="105" height="29" viewBox="0 0 105 29" fill="none" xmlns="http://www.w3.org/2000/svg">
<path fill-rule="evenodd" clip-rule="evenodd" d="M6.70639 1H0.0664062V28.6794C4.0636 28.0966 8.08267 27.5814 12.1225 27.1349C13.1518 25.9981 13.6664 24.4064 13.6664 22.36V19.96C13.6664 16.8133 12.5731 14.8667 10.3864 14.12V14.04C11.3464 13.64 12.0531 12.9867 12.5064 12.08C12.9864 11.1733 13.2264 10 13.2264 8.56V7.44C13.2264 5.25333 12.7064 3.64 11.6664 2.6C10.6264 1.53333 8.97305 1 6.70639 1ZM93.4142 27.5438C92.0929 27.3842 90.7693 27.2319 89.4434 27.0871L93.8448 14.68L89.0048 1H93.6448L96.6048 10.04H96.6848L99.7248 1H103.885L99.0448 14.68L104.125 29H104.087C102.48 28.7555 100.869 28.5219 99.2551 28.2993L96.2848 19.24H96.2048L93.4142 27.5438ZM8.14639 11.72C7.71973 12.1733 7.06641 12.4 6.1864 12.4H4.4664V5H6.5864C7.35971 5 7.91974 5.22667 8.26639 5.68C8.63974 6.13333 8.82639 6.86667 8.82639 7.88V9.44C8.82639 10.5067 8.59973 11.2667 8.14639 11.72ZM8.70639 24.4C8.33307 24.8 7.75974 25 6.98639 25H4.4664V16.4H6.42639C7.43973 16.4 8.15973 16.6533 8.5864 17.16C9.03973 17.64 9.26639 18.52 9.26639 19.8V22.24C9.26639 23.2533 9.07971 23.9733 8.70639 24.4Z" fill="#E50914"/>
<path fill-rule="evenodd" clip-rule="evenodd" d="M40.3127 25.16C37.8479 25.2339 35.3895 25.3333 32.9377 25.458C32.6232 25.2537 32.3377 25.0143 32.0812 24.7399C31.0778 23.6666 30.5762 22.1499 30.5762 20.1899V7.3099C30.5762 5.3499 31.0778 3.83323 32.0812 2.7599C33.0845 1.68657 34.5312 1.1499 36.4212 1.1499C38.3112 1.1499 39.7578 1.68657 40.7612 2.7599C41.7645 3.83323 42.2662 5.3499 42.2662 7.3099V20.1899C42.2662 22.1499 41.7645 23.6666 40.7612 24.7399C40.6204 24.8905 40.4709 25.0305 40.3127 25.16ZM55.4048 25.0271C53.9387 25.009 52.4703 25 50.9999 25C49.0695 25 47.1428 25.0156 45.2198 25.0467V1.4999H49.0699V22.4999H55.4048V25.0271ZM61.4511 25.153C60.1695 25.1154 58.8861 25.0847 57.6011 25.061V1.4999H67.7861V4.9999H61.4511V11.8249H66.4211V15.3249H61.4511V25.153ZM77.6566 25.9999C75.1061 25.8078 72.5479 25.6431 69.9823 25.506V1.4999H73.8323V22.4999H80.1673V25.9999H77.6566ZM38.4162 20.4349C38.4162 22.0449 37.7512 22.8499 36.4212 22.8499C35.0912 22.8499 34.4262 22.0449 34.4262 20.4349V7.0649C34.4262 5.4549 35.0912 4.6499 36.4212 4.6499C37.7512 4.6499 38.4162 5.4549 38.4162 7.0649V20.4349Z" fill="#E50914"/>
<path fill-rule="evenodd" clip-rule="evenodd" d="M25.9058 25.8858C23.27 26.0725 20.6423 26.2884 18.0229 26.5332C17.6223 26.2955 17.2634 26.0071 16.9465 25.668C15.8858 24.5333 15.3555 22.93 15.3555 20.858V7.24198C15.3555 5.16998 15.8858 3.56665 16.9465 2.43198C18.0071 1.29731 19.5365 0.72998 21.5345 0.72998C23.5325 0.72998 25.0618 1.29731 26.1225 2.43198C27.1831 3.56665 27.7135 5.16998 27.7135 7.24198V20.858C27.7135 22.93 27.1831 24.5333 26.1225 25.668C26.0523 25.7431 25.9801 25.8157 25.9058 25.8858ZM86.3359 26.7616C84.9815 26.6258 83.6248 26.4977 82.2659 26.3774V1.09998H86.3359V26.7616ZM23.6435 21.117C23.6435 22.819 22.9405 23.67 21.5345 23.67C20.1285 23.67 19.4255 22.819 19.4255 21.117V6.98298C19.4255 5.28098 20.1285 4.42998 21.5345 4.42998C22.9405 4.42998 23.6435 5.28098 23.6435 6.98298V21.117Z" fill="#E50914"/>
</svg>
