<svg width="17" height="28" viewBox="0 0 17 28" fill="none" xmlns="http://www.w3.org/2000/svg">
<path d="M2.05406 -1.90735e-06H8.69406C10.9607 -1.90735e-06 12.6141 0.533332 13.6541 1.6C14.6941 2.64 15.2141 4.25333 15.2141 6.44V7.56C15.2141 9 14.9741 10.1733 14.4941 11.08C14.0407 11.9867 13.3341 12.64 12.3741 13.04V13.12C14.5607 13.8667 15.6541 15.8133 15.6541 18.96V21.36C15.6541 23.52 15.0807 25.1733 13.9341 26.32C12.8141 27.44 11.1607 28 8.97406 28H2.05406V-1.90735e-06ZM8.17406 11.4C9.05406 11.4 9.7074 11.1733 10.1341 10.72C10.5874 10.2667 10.8141 9.50667 10.8141 8.44V6.88C10.8141 5.86667 10.6274 5.13333 10.2541 4.68C9.9074 4.22667 9.3474 4 8.57406 4H6.45406V11.4H8.17406ZM8.97406 24C9.7474 24 10.3207 23.8 10.6941 23.4C11.0674 22.9733 11.2541 22.2533 11.2541 21.24V18.8C11.2541 17.52 11.0274 16.64 10.5741 16.16C10.1474 15.6533 9.4274 15.4 8.41406 15.4H6.45406V24H8.97406Z" fill="#E50914"/>
<rect x="10.4492" y="11.3999" width="4" height="4" transform="rotate(90 10.4492 11.3999)" fill="url(#paint0_linear_243_95)"/>
<defs>
<linearGradient id="paint0_linear_243_95" x1="12.4492" y1="11.3999" x2="12.4492" y2="15.3999" gradientUnits="userSpaceOnUse">
<stop stop-color="#E50914" stop-opacity="0"/>
<stop offset="0.895" stop-color="#A5040C"/>
</linearGradient>
</defs>
</svg>
